<svg xmlns="http://www.w3.org/2000/svg" version="1.1" viewBox="71 417.14 888.68 180.84"><path d="M 267.531 418.079 C 259.304 419.325, 251.722 423.430, 245.915 429.783 C 237.668 438.807, 237.901 436.403, 238.221 509.105 L 238.500 572.500 240.807 577.136 C 246.713 589.008, 258.101 596.491, 272 597.632 C 289.249 599.049, 302.876 592.513, 310.846 579 C 313.396 574.676, 313.513 573.827, 313.833 557.250 L 314.165 540 301.083 540 L 288 540 288 552.484 C 288 564.700, 287.941 565.035, 285.242 568.056 C 282.777 570.814, 281.883 571.143, 276.842 571.143 C 270.504 571.143, 267.551 569.745, 266.005 566.012 C 265.298 564.304, 265.042 544.673, 265.226 506.262 L 265.500 449.055 267.691 446.864 C 269.246 445.309, 271.479 444.542, 275.397 444.217 C 280.498 443.794, 281.143 443.989, 283.957 446.803 L 287 449.846 287 461.923 L 287 474 300.500 474 L 314 474 314 460.182 C 314 450.837, 313.516 444.735, 312.506 441.334 C 310.718 435.310, 305.341 427.984, 299.722 423.914 C 292.576 418.737, 279.203 416.313, 267.531 418.079 M 456.716 418.064 C 443.264 420.093, 431.967 429.176, 428.189 441 C 427.574 442.925, 426.965 452.600, 426.836 462.500 L 426.601 480.500 429.550 486 C 431.406 489.460, 438.070 497.248, 447.522 507.001 C 463.125 523.101, 470.539 532.442, 474.093 540.478 C 475.862 544.476, 476.126 546.745, 475.838 555.492 C 475.562 563.918, 475.152 566.179, 473.591 567.902 C 469.301 572.637, 458.695 572.635, 454.409 567.900 C 452.804 566.126, 452.443 563.874, 452.140 553.752 L 451.781 541.713 442.140 542.351 C 436.838 542.702, 431.006 542.992, 429.180 542.995 L 425.859 543 426.180 558.250 C 426.556 576.144, 427.312 578.372, 435.966 587.087 C 453.552 604.797, 487.282 600.190, 498.836 578.500 C 501.429 573.633, 501.509 572.961, 501.823 553.286 L 502.147 533.071 498.565 526.286 C 493.256 516.226, 487.627 509.228, 472.263 493.589 C 455.218 476.238, 453 472.411, 453 460.351 C 453 450.955, 454.204 447.463, 458.145 445.425 C 461.780 443.545, 468.001 443.612, 470.783 445.561 C 474.809 448.381, 476.137 452.451, 475.924 461.317 C 475.815 465.818, 476.013 469.613, 476.363 469.750 C 476.714 469.887, 482.668 470, 489.596 470 L 502.192 470 501.812 456.250 C 501.348 439.421, 499.621 434.596, 491.365 427.050 C 482.781 419.206, 470.416 415.999, 456.716 418.064 M 544.369 418.493 C 540.996 419.226, 536.782 420.578, 535.004 421.498 C 530.186 423.989, 523.211 430.785, 520.179 435.942 L 517.500 440.500 517.500 506.500 L 517.500 572.500 519.976 577.500 C 526.817 591.313, 542.417 599.177, 560.047 597.699 C 569.969 596.867, 577.770 593.096, 584.414 585.920 C 591.974 577.754, 593 574.097, 593 555.322 L 593 540 580 540 L 567 540 567 551.435 C 567 557.724, 566.570 564.001, 566.045 565.383 C 564.554 569.303, 560.560 571.353, 554.668 571.223 C 550.227 571.125, 549.110 570.673, 546.726 568.012 L 543.953 564.916 544.226 506.871 L 544.500 448.826 547.306 446.413 C 552.227 442.181, 562.539 443.497, 564.890 448.657 C 565.500 449.998, 566 456.248, 566 462.547 L 566 474 579 474 L 592 474 591.990 458.250 C 591.981 443.841, 591.781 442.074, 589.641 437.500 C 584.898 427.364, 574.556 419.969, 562.321 417.965 C 554.931 416.755, 551.958 416.842, 544.369 418.493 M 731.500 419.350 C 720.595 422.950, 712.819 429.785, 708.233 439.801 L 705.646 445.453 705.780 506.976 C 705.862 544.564, 706.302 569.797, 706.912 571.834 C 709.730 581.257, 719.280 591.367, 729 595.216 C 733.372 596.947, 736.653 597.405, 745 597.447 C 754.761 597.496, 755.968 597.278, 762.151 594.349 C 769.991 590.634, 775.863 585.097, 779.716 577.784 L 782.500 572.500 782.500 508.500 L 782.500 444.500 779.865 438.880 C 776.291 431.258, 771.257 425.955, 763.768 421.924 C 757.872 418.750, 756.847 418.535, 746.500 418.290 C 739.400 418.122, 734.082 418.498, 731.500 419.350 M 824.286 419.400 C 814.046 422.724, 806.370 429.604, 801.769 439.580 L 799.500 444.500 799.500 507.521 L 799.500 570.541 802.793 577.231 C 806.865 585.502, 813.932 591.970, 822.413 595.187 C 831.042 598.461, 845.995 598.444, 854.247 595.152 C 861.441 592.281, 870.261 584.349, 873.772 577.592 C 876.203 572.913, 876.462 571.243, 876.959 557 C 877.256 548.475, 877.450 520.056, 877.390 493.848 L 877.280 446.195 874.252 439.724 C 870.299 431.278, 865.487 426.080, 857.768 421.920 C 851.811 418.709, 850.929 418.529, 840 418.287 C 832.343 418.117, 827.092 418.489, 824.286 419.400 M 71 433.500 L 71 447 83.500 447 L 96 447 96 521.529 L 96 596.058 109.250 595.779 L 122.500 595.500 122.756 521.250 L 123.013 447 135.506 447 L 148 447 148.179 441.250 C 148.277 438.087, 148.447 432.012, 148.557 427.750 L 148.757 420 109.879 420 L 71 420 71 433.500 M 160 508 L 160 596 193 596 L 226 596 226 582.500 L 226 569 206.500 569 L 187 569 187 544.500 L 187 520 203 520 L 219 520 219 507 L 219 494 203 494 L 187 494 187 470.500 L 187 447 206 447 L 225 447 225 433.500 L 225 420 192.500 420 L 160 420 160 508 M 331.009 508.250 L 331 596 344.500 596 L 358 596 358 558.500 L 358 521 370.500 521 L 383 521 383 558.500 L 383 596 396.500 596 L 410 596 410 508 L 410 420 396.500 420 L 383 420 383 457 L 383 494 370.500 494 L 358 494 358 456.938 L 358 419.877 344.509 420.188 L 331.018 420.500 331.009 508.250 M 609 508 L 609 596 622.500 596 L 636 596 636 558.500 L 636 521 648.750 520.999 L 661.500 520.999 661.180 546.249 C 661.004 560.137, 661.162 577.013, 661.531 583.750 L 662.201 596 675.101 596 L 688 596 688 507.875 L 688 419.750 684.875 420.375 C 683.156 420.719, 677.081 421, 671.375 421 L 661 421 661 457.500 L 661 494 648.500 494 L 636 494 636 457 L 636 420 622.500 420 L 609 420 609 508 M 895 507.939 L 895 596 927 596 L 959 596 959 584.082 C 959 577.527, 959.273 571.452, 959.607 570.582 C 960.147 569.173, 958.119 569, 941.107 569 L 922 569 922 494.749 L 922 420.497 908.500 420.188 L 895 419.878 895 507.939 M 738.213 445.529 C 731.974 448.197, 732 447.938, 732 508.518 C 732 567.679, 731.942 567.025, 737.455 569.976 C 738.899 570.748, 742.363 571.346, 745.153 571.304 C 751.252 571.212, 754.647 568.439, 756.046 562.407 C 757.445 556.376, 757.107 457.363, 755.671 452.606 C 755.024 450.465, 753.372 447.887, 751.998 446.879 C 748.645 444.418, 742.270 443.793, 738.213 445.529 M 832.213 445.453 C 825.977 448.264, 826 448.031, 826 508 C 826 565.474, 826.149 567.404, 830.778 569.881 C 836.565 572.978, 844.444 571.793, 847.984 567.293 C 849.952 564.792, 850 563.363, 850 507.881 L 850 451.032 847.250 448.007 C 843.868 444.287, 837.280 443.168, 832.213 445.453" stroke="none" fill="#e30c0c" fill-rule="evenodd"/></svg>